<svg xmlns="http://www.w3.org/2000/svg" version="1.1" xmlns:xlink="http://www.w3.org/1999/xlink" xmlns:svgjs="http://svgjs.dev/svgjs" width="1500" height="1500" viewBox="0 0 1500 1500"><rect width="1500" height="1500" fill="#ffffff"></rect><g transform="matrix(0.6666666666666666,0,0,0.6666666666666666,249.39393939393938,438.5856950067477)"><svg viewBox="0 0 396 247" data-background-color="#000000" preserveAspectRatio="xMidYMid meet" height="935" width="1500" xmlns="http://www.w3.org/2000/svg" xmlns:xlink="http://www.w3.org/1999/xlink"><g id="tight-bounds" transform="matrix(1,0,0,1,0.2400000000000091,-0.09999999999999432)"><svg viewBox="0 0 395.52 247.2" height="247.2" width="395.52"><g><svg></svg></g><g><svg viewBox="0 0 395.52 247.2" height="247.2" width="395.52"><g transform="matrix(1,0,0,1,94.34735389815842,47.215199999999996)"><svg viewBox="0 0 206.82529220368315 152.7696" height="152.7696" width="206.82529220368315"><g><svg viewBox="0 0 206.82529220368315 152.7696" height="152.7696" width="206.82529220368315"><g><svg viewBox="0 0 244.43135999999998 180.54697613037393" height="152.7696" width="206.82529220368315"><g><svg viewBox="0 0 244.43135999999998 180.54697613037393" height="180.54697613037393" width="244.43135999999998"><g id="textblocktransform"><svg viewBox="0 0 244.43135999999998 180.54697613037393" height="180.54697613037393" width="244.43135999999998" id="textblock"><g><svg viewBox="0 0 244.43135999999998 101.3597619112628" height="101.3597619112628" width="244.43135999999998"><g transform="matrix(1,0,0,1,0,0)"><svg width="244.43135999999998" viewBox="2.75 -38 117.19 48.6" height="101.3597619112628" data-palette-color="#ffffff"><path d="M2.75 0L2.75-2.3 6.5-2.3 6.5-32.6 2.75-32.6 2.75-34.9 17.35-34.9Q20.8-34.9 23.65-33.83 26.5-32.75 28.53-30.58 30.55-28.4 31.68-25.13 32.8-21.85 32.8-17.45L32.8-17.45Q32.8-13.05 31.68-9.78 30.55-6.5 28.53-4.33 26.5-2.15 23.65-1.07 20.8 0 17.35 0L17.35 0 2.75 0ZM10.8-32.45L10.8-2.45 16.9-2.45Q19.45-2.45 21.53-3.33 23.6-4.2 25.03-5.78 26.45-7.35 27.23-9.55 28-11.75 28-14.45L28-14.45 28-20.45Q28-23.15 27.23-25.35 26.45-27.55 25.03-29.13 23.6-30.7 21.53-31.58 19.45-32.45 16.9-32.45L16.9-32.45 10.8-32.45ZM45.45 0.6L45.45 0.6Q41.85 0.6 39.82-1.28 37.8-3.15 37.8-6.4L37.8-6.4Q37.8-8.25 38.4-9.68 39-11.1 40.37-12.05 41.75-13 43.95-13.5 46.15-14 49.3-14L49.3-14 53-14 53-17.8Q53-20.85 51.52-22.48 50.05-24.1 47.1-24.1L47.1-24.1Q45.8-24.1 44.7-23.88 43.6-23.65 42.9-23.25L42.9-23.25 42.9-23.15Q43.45-22.85 43.97-22.25 44.5-21.65 44.5-20.55L44.5-20.55Q44.5-19.25 43.75-18.53 43-17.8 41.75-17.8L41.75-17.8Q40.55-17.8 39.77-18.53 39-19.25 39-20.7L39-20.7Q39-21.8 39.65-22.83 40.3-23.85 41.5-24.65 42.7-25.45 44.47-25.93 46.25-26.4 48.5-26.4L48.5-26.4Q52.55-26.4 54.82-24.3 57.1-22.2 57.1-18.4L57.1-18.4 57.1-2.15 60.85-2.15 60.85-0.4Q60.3 0 59.37 0.3 58.45 0.6 57.3 0.6L57.3 0.6Q55.35 0.6 54.3-0.5 53.25-1.6 53.25-3.45L53.25-3.45 53.25-3.8 53-3.8Q52.65-2.95 52.07-2.15 51.5-1.35 50.6-0.75 49.7-0.15 48.42 0.23 47.15 0.6 45.45 0.6ZM47.2-2.15L47.2-2.15Q49.6-2.15 51.3-3.38 53-4.6 53-7.15L53-7.15 53-12 49.75-12Q47.6-12 46.15-11.68 44.7-11.35 43.85-10.73 43-10.1 42.62-9.2 42.25-8.3 42.25-7.1L42.25-7.1 42.25-6.05Q42.25-4.15 43.55-3.15 44.85-2.15 47.2-2.15ZM70.85-31.75L70.85-31.75Q69.55-31.75 68.87-32.52 68.2-33.3 68.2-34.4L68.2-34.4 68.2-34.65Q68.2-35.75 68.87-36.52 69.55-37.3 70.85-37.3L70.85-37.3Q72.15-37.3 72.85-36.52 73.55-35.75 73.55-34.65L73.55-34.65 73.55-34.4Q73.55-33.3 72.85-32.52 72.15-31.75 70.85-31.75ZM65.1 0L65.1-2.3 68.8-2.3 68.8-22.55 65.1-23.2 65.1-24.9 72.9-26.4 72.9-2.3 76.6-2.3 76.6 0 65.1 0ZM80.09 0L80.09-2.3 83.79-2.3 83.79-34.15 80.09-34.8 80.09-36.55 87.89-38 87.89-2.3 91.59-2.3 91.59 0 80.09 0ZM99.49 10.6L99.49 10.6Q96.94 10.6 95.79 9.53 94.64 8.45 94.64 6.7L94.64 6.7Q94.64 5.4 95.34 4.6 96.04 3.8 97.34 3.8L97.34 3.8Q98.49 3.8 99.12 4.48 99.74 5.15 99.74 6.3L99.74 6.3Q99.74 7.15 99.32 7.68 98.89 8.2 98.39 8.35L98.39 8.35 98.39 8.5Q98.94 8.7 99.69 8.7L99.69 8.7Q100.99 8.7 102.24 7.58 103.49 6.45 104.49 3.9L104.49 3.9 105.54 1.05 96.04-23.5 93.44-23.5 93.44-25.8 104.14-25.8 104.14-23.5 100.54-23.5 107.49-4.6 107.69-4.6 114.44-23.5 110.84-23.5 110.84-25.8 119.94-25.8 119.94-23.5 117.34-23.5 106.64 4.3Q105.59 7.05 103.82 8.83 102.04 10.6 99.49 10.6Z" opacity="1" transform="matrix(1,0,0,1,0,0)" fill="#000000" class="wordmark-text-0" data-fill-palette-color="primary" id="text-0"></path></svg></g></svg></g><g transform="matrix(1,0,0,1,0,125.28836906422607)"><svg viewBox="0 0 244.43135999999998 55.25860706614786" height="55.25860706614786" width="244.43135999999998"><g transform="matrix(1,0,0,1,0,0)"><svg width="244.43135999999998" viewBox="3 -28.55 128.49 29.05" height="55.25860706614786" data-palette-color="#cce4ff"><path d="M13.6 0L3 0 3-0.8 6.55-2.45 6.55-25.6 3-27.2 3-28 10-28 26.95-7.45 26.95-25.6 22.7-27.2 22.7-28 33.2-28 33.2-27.2 29.7-25.6 29.7 0.2 27.75 0.2 9.3-22 9.3-2.6 13.6-0.8 13.6 0ZM62.05 0L39.45 0 39.45-0.8 43-2.45 43-25.55 39.45-27.2 39.45-28 60.8-28 60.8-20.9 60-20.9 57.6-25.5 47.25-25.5 47.25-15.75 54.8-15.75 56.3-19.15 57.1-19.15 57.1-9.9 56.3-9.9 54.8-13.25 47.25-13.25 47.25-2.5 58.75-2.5 61.25-7.9 62.05-7.9 62.05 0ZM79.7 0.2L77.65 0.2 69.65-25.75 66.3-27.2 66.3-28 77.9-28 77.9-27.2 74.15-25.8 79.6-7.5 79.9-7.5 88-28.2 89.85-28.2 97.5-7.5 97.75-7.5 102.85-25.7 99.1-27.2 99.1-28 108.95-28 108.95-27.2 106-25.75 98.1 0.2 96 0.2 88.1-20.55 87.85-20.55 79.7 0.2ZM121.64 0.5L121.64 0.5Q118.99 0.5 117.07-0.05 115.14-0.6 113.14-1.55L113.14-1.55 112.69-8.3 113.49-8.3 115.84-3.8Q117.29-2.7 118.82-2.27 120.34-1.85 121.94-1.85L121.94-1.85Q124.79-1.85 126.32-3.03 127.84-4.2 127.84-6.6L127.84-6.6Q127.84-8.4 126.89-9.38 125.94-10.35 124.12-11.18 122.29-12 119.64-13.25L119.64-13.25Q116.49-14.75 115.12-16.3 113.74-17.85 113.74-20.6L113.74-20.6Q113.74-22.7 114.99-24.5 116.24-26.3 118.27-27.43 120.29-28.55 122.74-28.55L122.74-28.55Q124.79-28.55 126.54-28.03 128.29-27.5 129.99-26.7L129.99-26.7 130.34-20.2 129.54-20.2 127.64-24.3Q126.44-25.3 125.34-25.75 124.24-26.2 122.79-26.2L122.79-26.2Q120.29-26.2 118.87-24.95 117.44-23.7 117.44-21.65L117.44-21.65Q117.44-20.3 118.09-19.4 118.74-18.5 120.12-17.73 121.49-16.95 123.69-15.9L123.69-15.9Q126.54-14.55 128.24-13.43 129.94-12.3 130.72-10.9 131.49-9.5 131.49-7.35L131.49-7.35Q131.49-5.05 130.22-3.28 128.94-1.5 126.72-0.5 124.49 0.5 121.64 0.5Z" opacity="1" transform="matrix(1,0,0,1,0,0)" fill="#000000" class="slogan-text-1" data-fill-palette-color="secondary" id="text-1"></path></svg></g></svg></g></svg></g></svg></g></svg></g></svg></g></svg></g><path d="M270.606 41.215L270.606 0 23.406 0 23.406 247.2 270.606 247.2 270.606 205.985 262.872 205.985 262.872 239.466 31.141 239.466 31.141 7.734 262.872 7.734 262.872 41.215Z" fill="#000000" stroke="transparent" data-fill-palette-color="tertiary"></path></svg></g><defs></defs></svg><rect width="395.52" height="247.2" fill="none" stroke="none" visibility="hidden"></rect></g></svg></g></svg>